# xmcd
#
# Track frame offsets: 
#        150
#        25390
#        53552
#        69417
#        99140
#        122092
#        170740
#
# Disc length: 2901 seconds
#
# Revision: 1
# Processed by: cddbd v1.5.2PL0 Copyright (c) Steve Scherf et al.
# Submitted via: ExactAudioCopy v0.99pb5
#
DISCID=540b5307
DTITLE=Jimmy Smith - Fourmost Return
DYEAR=1990
DGENRE=Jazz
TTITLE0=Sonnymoon For Two
TTITLE1=Mood Indigo
TTITLE2=Ain't She Sweet
TTITLE3=Back At The Chicken Shack
TTITLE4=Organ Grinder's Swing
TTITLE5=Laura
TTITLE6=Blues For Stanley
EXTD=YEAR: 2001
EXTT0=
EXTT1=
EXTT2=
EXTT3=
EXTT4=
EXTT5=
EXTT6=
PLAYORDER=
